<?xml version="1.0" standalone="no"?>
<!DOCTYPE svg PUBLIC "-//W3C//DTD SVG 20010904//EN" "http://www.w3.org/TR/2001/REC-SVG-20010904/DTD/svg10.dtd">
<svg version="1.0" xmlns="http://www.w3.org/2000/svg" width="24.000000pt" height="24.000000pt"
  viewBox="0 0 24.000000 24.000000" preserveAspectRatio="xMidYMid meet">

  <g transform="translate(0.000000,24.000000) scale(0.100000,-0.100000)" fill="currentColor" stroke="none">
    <path d="M44 165 c-8 -13 -18 -39 -21 -59 -5 -32 -3 -37 22 -48 23 -10 29 -10
33 0 5 16 79 16 84 0 4 -10 10 -10 31 -1 32 15 35 42 9 93 -17 34 -18 35 -80
36 -55 1 -65 -1 -78 -21z m59 -42 c9 -9 -13 -34 -24 -27 -14 8 -11 34 4 34 8
0 17 -3 20 -7z m67 -6 c0 -8 -3 -17 -7 -20 -9 -9 -34 13 -27 24 8 14 34 11 34
-4z" />
  </g>
</svg>