<?xml version="1.0" standalone="no"?>
<!DOCTYPE svg PUBLIC "-//W3C//DTD SVG 20010904//EN" "http://www.w3.org/TR/2001/REC-SVG-20010904/DTD/svg10.dtd">
<svg version="1.0" xmlns="http://www.w3.org/2000/svg" width="24.000000pt" height="24.000000pt"
  viewBox="0 0 24.000000 24.000000" preserveAspectRatio="xMidYMid meet">

  <g transform="translate(0.000000,24.000000) scale(0.100000,-0.100000)" fill="currentColor" stroke="none">
    <path d="M45 178 c25 -34 45 -67 45 -72 0 -6 -19 -29 -42 -53 -23 -23 -39 -45
-36 -48 3 -3 24 15 47 40 23 25 43 45 45 45 1 0 17 -20 35 -45 28 -38 37 -45
67 -45 l35 0 -42 58 c-23 31 -46 62 -51 68 -5 7 8 30 38 63 25 28 41 51 36 51
-6 0 -28 -20 -49 -45 l-39 -46 -33 46 c-27 38 -37 45 -67 45 l-34 0 45 -62z
m89 -53 c42 -58 76 -107 76 -110 0 -3 -6 -5 -14 -5 -12 0 -166 200 -166 215 0
3 6 5 14 5 8 0 49 -47 90 -105z" />
  </g>
</svg>